<svg width="270" height="270" viewBox="0 0 270 270" fill="none" xmlns="http://www.w3.org/2000/svg">
<g clip-path="url(#clip0_27_662)">
<rect width="270" height="270" fill="black"/>
<path d="M121.813 118.109V108.78L135.884 114.846V96.079L121.813 90.2538L108.976 84.9546V112.459L106.003 111.167L98.3839 107.817V80.5748L95.1032 79.2171L86.1193 75.494V102.386L68.0846 94.4586V112.022L86.1411 120.299V135.387L68.0846 126.825V144.388L86.1411 153.257V180.389L98.4062 186.74V159.52L108.998 164.71V192.456L121.835 199.113V171.017L135.906 177.915V159.148L121.835 152.49V136.614L135.906 143.052V124.285L121.835 118.087L121.813 118.109ZM108.976 130.745V146.183L107.434 145.461L98.3839 141.191V125.927L106.003 129.409L108.976 130.767V130.745Z" fill="#FF0054"/>
<path d="M141.829 156.388C139.847 157.308 137.866 158.228 135.884 159.147V177.915C136.478 177.783 137.689 177.63 139.01 178.112C139.01 178.112 140.023 178.462 140.86 179.251C143.569 181.747 143.635 186.455 143.635 187.353V202.397C147.994 200.142 152.332 197.886 156.626 195.674V149.161C151.738 151.549 146.828 153.957 141.851 156.41L141.829 156.388Z" fill="#FF0054"/>
<path d="M141.829 121.832C139.847 122.664 137.866 123.496 135.884 124.307V143.073C137.866 142.22 139.847 141.344 141.829 140.49C148.017 137.643 154.138 134.84 160.194 132.081C162.704 130.942 164.972 131.38 166.623 133C169.2 135.562 169.266 140.139 169.266 141.015C169.266 157.045 169.266 173.075 169.266 189.083C173.427 186.937 177.545 184.813 181.641 182.71C181.641 156.585 181.641 130.438 181.641 104.313C168.715 110.007 155.459 115.831 141.873 121.832H141.829Z" fill="#FF0054"/>
<path d="M141.829 93.7358C139.847 94.5241 137.866 95.3124 135.884 96.079V114.846C138.416 113.861 140.464 112.985 141.829 112.394C146.079 110.554 179.263 96.2106 185.054 93.7358C187.454 92.7064 189.612 93.232 191.176 94.8746C193.179 96.9989 193.488 100.612 193.686 102.802C193.862 104.86 193.796 106.678 193.686 107.882C193.686 114.08 193.708 120.277 193.73 126.475C193.708 143.14 193.686 159.805 193.664 176.448C197.627 174.389 201.547 172.331 205.444 170.294C205.444 161.513 205.444 152.731 205.467 143.928C205.467 118.416 205.467 92.8819 205.467 67.3698C184.614 76.37 163.409 85.1517 141.829 93.6919V93.7358Z" fill="#FF0054"/>
</g>
<defs>
<clipPath id="clip0_27_662">
<rect width="270" height="270" fill="white"/>
</clipPath>
</defs>
</svg>
