<svg width="243" height="239" viewBox="0 0 243 239" fill="none" xmlns="http://www.w3.org/2000/svg">
<path d="M100.676 96.6041V83.7749L119.969 92.1173V66.3085L100.676 58.2976L83.0716 51.0102V88.8346L78.9958 87.0576L68.5479 82.4502V44.9871L64.0492 43.12L51.73 38V74.9817L27 64.08V88.2325L51.7599 99.6156V120.365L27 108.59V132.742L51.7599 144.939V182.252L68.5784 190.985V153.552L83.1022 160.689V198.845L100.705 208V169.362L120 178.849V153.04L100.705 143.885V122.052L120 130.905V105.097L100.705 96.5742L100.676 96.6041ZM83.0716 113.98V135.212L80.958 134.218L68.5479 128.346V107.355L78.9958 112.144L83.0716 114.011V113.98Z" fill="#EC2058"/>
<path d="M128.312 148.909C125.542 150.171 122.771 151.432 120 152.693V178.428C120.831 178.247 122.525 178.038 124.372 178.698C124.372 178.698 125.787 179.178 126.958 180.26C130.744 183.683 130.836 190.139 130.836 191.37V212C136.932 208.907 142.997 205.814 149 202.781V139C142.166 142.273 135.301 145.576 128.343 148.94L128.312 148.909Z" fill="#EC2058"/>
<path d="M128.186 101.18C125.458 102.328 122.729 103.477 120 104.596V130.498C122.729 129.319 125.458 128.11 128.186 126.932C136.705 123.002 145.133 119.134 153.471 115.325C156.927 113.754 160.05 114.358 162.324 116.594C165.871 120.131 165.962 126.448 165.962 127.657C165.962 149.781 165.962 171.906 165.962 194C171.692 191.038 177.361 188.107 183 185.205C183 149.146 183 113.058 183 77C165.204 84.859 146.952 92.8983 128.246 101.18H128.186Z" fill="#EC2058"/>
<path d="M128.202 62.4992C125.469 63.5905 122.734 64.6817 120 65.743V91.7233C123.494 90.359 126.319 89.1463 128.202 88.328C134.066 85.7817 179.848 65.9252 187.838 62.4992C191.149 61.0742 194.126 61.8017 196.283 64.0757C199.048 67.0165 199.473 72.0183 199.746 75.0498C199.989 77.8992 199.899 80.4154 199.746 82.0827C199.746 90.662 199.777 99.2414 199.807 107.821C199.777 130.89 199.746 153.96 199.716 177C205.184 174.15 210.592 171.301 215.969 168.481C215.969 156.325 215.969 144.168 216 131.982C216 96.6644 216 61.3172 216 26C187.23 38.4592 157.975 50.616 128.202 62.4385V62.4992Z" fill="#EC2058"/>
</svg>
