<?xml version="1.0" standalone="no"?>
<!DOCTYPE svg PUBLIC "-//W3C//DTD SVG 20010904//EN"
 "http://www.w3.org/TR/2001/REC-SVG-20010904/DTD/svg10.dtd">
<svg version="1.0" xmlns="http://www.w3.org/2000/svg"
 width="256.000000pt" height="256.000000pt" viewBox="0 0 256.000000 256.000000"
 preserveAspectRatio="xMidYMid meet">

<g transform="translate(0.000000,256.000000) scale(0.100000,-0.100000)"
fill="#000000" stroke="none">
<path d="M2160 2198 c-147 -64 -476 -199 -701 -289 l-176 -69 -193 80 c-106
44 -194 80 -196 80 -2 0 -4 -90 -4 -199 l0 -200 -72 34 -73 33 -3 200 -2 200
-80 32 c-43 18 -83 33 -87 33 -4 1 -10 -84 -13 -190 l-5 -191 -119 54 c-65 29
-122 51 -127 48 -5 -3 -9 -56 -9 -119 0 -133 -12 -118 149 -190 l111 -50 0
-112 0 -112 -126 60 c-69 32 -128 59 -130 59 -2 0 -4 -56 -4 -124 l0 -124 129
-63 129 -64 4 -200 3 -200 80 -42 c44 -23 83 -42 88 -43 4 0 7 88 7 195 l0
195 75 -37 75 -37 0 -202 0 -202 86 -46 c47 -25 90 -46 95 -46 5 0 9 90 9 200
l0 200 90 -45 c49 -25 103 -45 120 -45 81 0 102 -43 108 -217 l5 -132 88 45
89 44 0 334 0 335 -97 -47 c-54 -26 -123 -59 -153 -73 l-55 -26 -97 46 -97 46
0 117 c-1 108 0 117 17 111 9 -3 53 -23 97 -43 93 -42 61 -49 301 61 83 38
165 69 181 69 39 0 69 -33 82 -90 6 -26 11 -189 11 -392 l0 -348 85 42 85 42
0 568 c0 313 -1 568 -3 568 -2 0 -55 -23 -118 -51 -63 -29 -210 -94 -328 -145
l-213 -93 -97 43 -96 42 -3 67 c-2 37 1 67 6 67 5 0 50 -18 102 -40 l92 -41
362 156 c204 87 375 155 392 155 17 0 38 -8 46 -17 42 -48 42 -45 40 -625 -1
-307 0 -558 3 -558 3 0 41 18 85 40 l80 40 0 745 c0 410 -3 745 -7 744 -5 0
-60 -23 -123 -51z m-1272 -971 l3 -117 -76 37 -75 37 0 113 0 112 73 -32 72
-33 3 -117z"/>
</g>
</svg>
